<svg id="nb-logo" xmlns="http://www.w3.org/2000/svg" width="150.506" height="22.645" viewBox="0 0 150.506 22.645">
  <path id="Path_22" data-name="Path 22" d="M4.21.12A4.544,4.544,0,0,0,7.2-.99V-4.03H4.16V-2.7H5.71v1a2.457,2.457,0,0,1-1.45.42A2.1,2.1,0,0,1,2.14-3.5v-.02A2.1,2.1,0,0,1,4.15-5.7a2.578,2.578,0,0,1,1.83.71l.97-1.17A3.843,3.843,0,0,0,4.2-7.12,3.593,3.593,0,0,0,.53-3.5v.02A3.5,3.5,0,0,0,4.21.12ZM8.59,0h1.52V-7.3H8.59Zm5.58.12a2.813,2.813,0,0,0,2.91-2.79v-.02a2.786,2.786,0,0,0-2.89-2.77,2.813,2.813,0,0,0-2.91,2.79v.02A2.786,2.786,0,0,0,14.17.12Zm.02-1.31a1.424,1.424,0,0,1-1.41-1.48v-.02a1.373,1.373,0,0,1,1.39-1.46,1.424,1.424,0,0,1,1.41,1.48v.02A1.373,1.373,0,0,1,14.19-1.19ZM21.37.1a2.512,2.512,0,0,0,2.44-2.77v-.02a2.523,2.523,0,0,0-2.44-2.77,1.968,1.968,0,0,0-1.67.87V-7.3H18.18V0H19.7V-.7A2.058,2.058,0,0,0,21.37.1Zm-.39-1.29a1.36,1.36,0,0,1-1.3-1.48v-.02a1.36,1.36,0,0,1,1.3-1.48,1.367,1.367,0,0,1,1.31,1.48v.02A1.361,1.361,0,0,1,20.98-1.19ZM26.45.1a2.061,2.061,0,0,0,1.62-.68V0h1.47V-3.11a2.336,2.336,0,0,0-.58-1.71,2.475,2.475,0,0,0-1.81-.6,4.729,4.729,0,0,0-2.08.43l.38,1.16a3.943,3.943,0,0,1,1.48-.29c.76,0,1.15.35,1.15.98v.09a3.809,3.809,0,0,0-1.31-.22c-1.27,0-2.16.54-2.16,1.71v.02A1.658,1.658,0,0,0,26.45.1Zm.46-1.05c-.49,0-.83-.24-.83-.65v-.02c0-.48.4-.74,1.05-.74a2.357,2.357,0,0,1,.97.2v.27C28.1-1.34,27.62-.95,26.91-.95ZM30.92,0h1.52V-7.3H30.92Zm6.11,0h1.54V-2.24h1.21L41.28,0h1.8L41.37-2.5a2.174,2.174,0,0,0,1.5-2.17v-.02a2.2,2.2,0,0,0-.6-1.6A2.79,2.79,0,0,0,40.23-7h-3.2Zm1.54-3.6V-5.61H40.1c.75,0,1.21.34,1.21,1v.02c0,.59-.43.99-1.18.99ZM46.54.12a2.681,2.681,0,0,0,2.19-1l-.87-.77a1.757,1.757,0,0,1-1.3.55,1.243,1.243,0,0,1-1.31-1.05h3.73c.01-.14.02-.28.02-.4a2.61,2.61,0,0,0-2.61-2.91,2.669,2.669,0,0,0-2.65,2.79v.02A2.681,2.681,0,0,0,46.54.12ZM45.23-3.1a1.2,1.2,0,0,1,1.16-1.14A1.15,1.15,0,0,1,47.52-3.1ZM51.94.09a2.241,2.241,0,0,0,1.2-.31V-1.44a1.546,1.546,0,0,1-.75.19c-.34,0-.49-.17-.49-.52V-4.06h1.26v-1.3H51.9V-6.73H50.38v1.37h-.64v1.3h.64v2.54C50.38-.28,51.01.09,51.94.09ZM55.8.1a2.061,2.061,0,0,0,1.62-.68V0h1.47V-3.11a2.336,2.336,0,0,0-.58-1.71,2.475,2.475,0,0,0-1.81-.6,4.729,4.729,0,0,0-2.08.43l.38,1.16a3.943,3.943,0,0,1,1.48-.29c.76,0,1.15.35,1.15.98v.09a3.809,3.809,0,0,0-1.31-.22c-1.27,0-2.16.54-2.16,1.71v.02A1.658,1.658,0,0,0,55.8.1Zm.46-1.05c-.49,0-.83-.24-.83-.65v-.02c0-.48.4-.74,1.05-.74a2.357,2.357,0,0,1,.97.2v.27C57.45-1.34,56.97-.95,56.26-.95Zm3.97-5h1.6V-7.3h-1.6ZM60.27,0h1.52V-5.36H60.27Zm3.02,0h1.52V-7.3H63.29Zm7.74,0h1.54V-5.58H74.7V-7H68.9v1.42h2.13ZM77.3.12a2.813,2.813,0,0,0,2.91-2.79v-.02a2.786,2.786,0,0,0-2.89-2.77,2.813,2.813,0,0,0-2.91,2.79v.02A2.786,2.786,0,0,0,77.3.12Zm.02-1.31a1.424,1.424,0,0,1-1.41-1.48v-.02A1.373,1.373,0,0,1,77.3-4.15a1.424,1.424,0,0,1,1.41,1.48v.02A1.373,1.373,0,0,1,77.32-1.19ZM83.94.12a2.813,2.813,0,0,0,2.91-2.79v-.02a2.786,2.786,0,0,0-2.89-2.77,2.813,2.813,0,0,0-2.91,2.79v.02A2.786,2.786,0,0,0,83.94.12Zm.02-1.31a1.424,1.424,0,0,1-1.41-1.48v-.02a1.373,1.373,0,0,1,1.39-1.46,1.424,1.424,0,0,1,1.41,1.48v.02A1.373,1.373,0,0,1,83.96-1.19ZM88.02,0h1.52V-7.3H88.02Zm2.95,0h1.52V-1.63l.53-.56L94.42,0h1.74L94.05-3.25l2.04-2.11H94.27L92.49-3.41V-7.3H90.97Zm5.95-5.95h1.6V-7.3h-1.6ZM96.96,0h1.52V-5.36H96.96Zm4.76.09a2.241,2.241,0,0,0,1.2-.31V-1.44a1.546,1.546,0,0,1-.75.19c-.34,0-.49-.17-.49-.52V-4.06h1.26v-1.3h-1.26V-6.73h-1.52v1.37h-.64v1.3h.64v2.54C100.16-.28,100.79.09,101.72.09Z" transform="translate(47.566 21)" fill="#e21836"/>
  <g id="q8PeLx.tif">
    <g id="Group_3" data-name="Group 3">
      <path id="Path_8" data-name="Path 8" d="M-1677-1838.628a.686.686,0,0,1,.041-.09q.709-1.109,1.418-2.217a.147.147,0,0,1,.139-.077c.361-.005.722-.015,1.083-.022l3.432-.069,4.889-.1.769-.017h.11c-.021.042-.034.072-.05.1q-.634,1.164-1.267,2.329a.153.153,0,0,1-.157.091q-2.724.016-5.447.036l-3.554.026c-.043,0-.087.008-.13.011Z" transform="translate(1677 1861.273)" fill="#e21836"/>
      <path id="Path_9" data-name="Path 9" d="M-504.476-3821c.043.005.086.014.13.015l2.8.07,4.078.1,1.467.038.1.006.231,2.3-9.891-.147,1-2.387Z" transform="translate(517.419 3821)" fill="#e21836"/>
      <path id="Path_10" data-name="Path 10" d="M-1377.374-3785.335l-6.34-.7c.009-.088.962-2.4,1.123-2.731.049.006.1.016.154.018.172.008.344.021.516.02q1.534-.011,3.068-.028c.8-.009,1.6-.03,2.4-.033q3.347-.014,6.694-.017c.621,0,1.242.024,1.861.082a7.3,7.3,0,0,1,1.54.282,2.669,2.669,0,0,1,.962.5,1.537,1.537,0,0,1,.429.58,10.614,10.614,0,0,1,.558,1.646,5.753,5.753,0,0,1,.142,1.375,4.727,4.727,0,0,1-.994,2.793,8.078,8.078,0,0,1-1.486,1.513,14.466,14.466,0,0,1-2.272,1.476c-.4.211-.8.4-1.2.606l-.1.051c.042.031.076.058.11.083a6.448,6.448,0,0,1,1.215,1.11,4.088,4.088,0,0,1,.862,1.666,3.765,3.765,0,0,1,.042,1.527,5.475,5.475,0,0,1-.844,2.054,9.387,9.387,0,0,1-1.658,1.9,12.675,12.675,0,0,1-3.4,2.186,8.011,8.011,0,0,1-1.889.586,4.815,4.815,0,0,1-.724.073c-1.711.021-3.423.033-5.134.049l-6.988.061-4.466.038h-.108l-.975-3.3,8.684-.741v-.013c-.052-.005-.1-.013-.156-.015l-1.588-.069-2.458-.113-1.467-.065-2.144-.1c-.26-.012-.519-.025-.779-.03a.156.156,0,0,1-.163-.112q-.625-1.493-1.257-2.984c-.014-.033-.029-.066-.05-.112-.027.048-.047.083-.066.118q-.722,1.347-1.442,2.7a.164.164,0,0,1-.171.1q-5.109-.038-10.218-.071c-.033,0-.065,0-.11,0,.02-.036.031-.062.047-.087q.816-1.286,1.632-2.573a.138.138,0,0,1,.13-.071q1.058-.027,2.115-.059l3.877-.112,1.66-.046c.82-.022,1.64-.04,2.46-.07.266-.01.53-.051.8-.082.375-.043.75-.089,1.126-.133l1.276-.151,1.116-.133,1.307-.155,1.276-.15,1.286-.153,1.106-.13,1.3-.154,1.106-.13c.288-.034.576-.069.864-.115-.019,0-.038-.006-.057-.007l-2.024-.058-3.523-.1-1.609-.044-3.523-.1-1.6-.044-3.533-.1-1.6-.044-3.533-.1c-.121,0-.243,0-.387,0,.026-.05.041-.081.058-.111l1.246-2.121c.123-.209.249-.417.368-.629a.14.14,0,0,1,.135-.08q1.417-.041,2.834-.087l3.806-.123,2.469-.08,3.806-.123,2.48-.08,3.168-.1,2.48-.08.667-.024a.037.037,0,0,0,0-.011.016.016,0,0,0-.008-.006.215.215,0,0,0-.038-.012l-5.357-.882c.019-.038.034-.069.051-.1l1.905-3.284c.054-.094.11-.186.161-.281a.121.121,0,0,1,.11-.073c.306-.02.613-.042.919-.064l1.292-.094.949-.068,1.292-.094,1.232-.088c.337-.024.673-.051,1.01-.073A.234.234,0,0,0-1377.374-3785.335Zm-4.765,13.463c.008.008.011.015.017.017.032.012.063.023.1.032a7.1,7.1,0,0,0,1.33.25,5.762,5.762,0,0,0,2.026-.167,4.392,4.392,0,0,0,1.676-.847,2.759,2.759,0,0,0,.833-1.091,1.573,1.573,0,0,0,.106-.863,1.439,1.439,0,0,0-.565-.906,2.883,2.883,0,0,0-1.1-.507,7.174,7.174,0,0,0-1.939-.175.177.177,0,0,0-.169.11q-1.125,2.026-2.255,4.05C-1382.1-3771.936-1382.122-3771.9-1382.138-3771.872Zm5.3-8.821c.037.014.064.027.093.035a4.805,4.805,0,0,0,2.2.192,3.677,3.677,0,0,0,1.658-.682,2.612,2.612,0,0,0,.848-1.026,1.565,1.565,0,0,0,.139-.868,1.326,1.326,0,0,0-.561-.9,2.517,2.517,0,0,0-.97-.413,5.548,5.548,0,0,0-1.369-.107.159.159,0,0,0-.162.1q-.654,1.291-1.315,2.578Z" transform="translate(1410.395 3789.138)" fill="#e21836"/>
      <path id="Path_11" data-name="Path 11" d="M-804.307-3396.446l-13.992-.517,1.434-2.925,12.181-.29Z" transform="translate(826.996 3404.44)" fill="#e21836"/>
    </g>
  </g>
</svg>
