<svg xmlns="http://www.w3.org/2000/svg" width="372.131" height="46" viewBox="0 0 372.131 46">
  <g id="Group_5" data-name="Group 5" transform="translate(-54.869 -677)">
    <text id="Document_management_system" data-name="Document management system" transform="translate(153 717)" fill="#e21836" font-size="19" font-family="ProximaNova-Bold, Proxima Nova" font-weight="700"><tspan x="0" y="0">Document management system</tspan></text>
    <g id="q8PeLx.tif" transform="translate(54.869 677)">
      <g id="Group_3" data-name="Group 3">
        <path id="Path_8" data-name="Path 8" d="M-1677-1836.033a1.372,1.372,0,0,1,.082-.179q1.418-2.217,2.836-4.434a.294.294,0,0,1,.278-.153c.722-.011,1.444-.03,2.166-.045q3.432-.07,6.863-.138,4.889-.1,9.778-.206l1.539-.033c.065,0,.13,0,.221,0-.042.085-.068.145-.1.2q-1.269,2.328-2.535,4.657a.306.306,0,0,1-.314.183q-5.447.032-10.894.073l-7.107.052c-.087,0-.174.015-.26.023Z" transform="translate(1677 1881.323)" fill="#e21836"/>
        <path id="Path_9" data-name="Path 9" d="M-503.4-3821c.086.01.173.028.259.03l5.606.139,8.156.206,2.935.075c.06,0,.12.006.205.011l.462,4.607-19.782-.294,2-4.774Z" transform="translate(529.282 3821)" fill="#e21836"/>
        <path id="Path_10" data-name="Path 10" d="M-1347.08-3781.859l-12.68-1.409c.018-.175,1.924-4.805,2.246-5.463.1.012.2.031.308.037.344.017.688.042,1.032.04q3.068-.022,6.137-.057c1.6-.018,3.2-.06,4.8-.066q6.694-.029,13.388-.034c1.242,0,2.484.049,3.721.164a14.608,14.608,0,0,1,3.08.564,5.34,5.34,0,0,1,1.925,1,3.078,3.078,0,0,1,.858,1.16,21.252,21.252,0,0,1,1.116,3.292,11.5,11.5,0,0,1,.284,2.75,9.454,9.454,0,0,1-1.988,5.587,16.158,16.158,0,0,1-2.972,3.025,28.938,28.938,0,0,1-4.544,2.952c-.792.422-1.6.81-2.4,1.212l-.206.1c.084.063.151.116.22.165a12.892,12.892,0,0,1,2.431,2.22,8.175,8.175,0,0,1,1.724,3.333,7.525,7.525,0,0,1,.083,3.054,10.948,10.948,0,0,1-1.688,4.108,18.774,18.774,0,0,1-3.316,3.807,25.35,25.35,0,0,1-6.8,4.372,16.021,16.021,0,0,1-3.779,1.172,9.629,9.629,0,0,1-1.448.147c-3.423.042-6.846.067-10.269.1l-13.975.122-8.932.077h-.216l-1.95-6.6,17.368-1.482,0-.026c-.1-.01-.208-.026-.312-.031-1.059-.047-2.118-.09-3.177-.138q-2.458-.111-4.916-.225l-2.934-.131-4.289-.193c-.52-.023-1.039-.049-1.558-.061a.312.312,0,0,1-.326-.225q-1.25-2.987-2.515-5.968c-.028-.066-.059-.131-.1-.224-.054.1-.095.166-.133.236q-1.444,2.694-2.885,5.39a.328.328,0,0,1-.342.2q-10.218-.076-20.436-.142c-.065,0-.13-.005-.221-.009.039-.072.063-.125.094-.174q1.633-2.573,3.264-5.147a.276.276,0,0,1,.26-.143q2.116-.054,4.231-.118l7.754-.224q1.66-.048,3.32-.091c1.64-.045,3.28-.08,4.92-.141.531-.02,1.061-.1,1.59-.163.751-.085,1.5-.177,2.251-.266l2.553-.3,2.231-.265,2.613-.31,2.553-.3,2.573-.306,2.211-.26,2.593-.307,2.211-.26c.576-.068,1.151-.137,1.727-.23-.038,0-.076-.012-.115-.013l-4.049-.116-7.046-.2-3.219-.088-7.045-.2-3.2-.088-7.065-.2-3.2-.088-7.065-.195c-.242-.007-.485,0-.774,0,.052-.1.081-.162.116-.222q1.245-2.122,2.491-4.242c.246-.419.5-.835.736-1.258a.279.279,0,0,1,.271-.16q2.834-.082,5.668-.174,3.806-.121,7.611-.245l4.939-.16,7.611-.246,4.959-.16,6.336-.2,4.959-.161c.445-.014.889-.032,1.334-.047a.074.074,0,0,0-.007-.022.032.032,0,0,0-.017-.011.43.43,0,0,0-.077-.024l-10.714-1.765c.039-.075.068-.138.1-.2l3.81-6.568c.108-.187.221-.372.323-.562a.243.243,0,0,1,.219-.146c.613-.039,1.226-.083,1.838-.128l2.585-.188,1.9-.136,2.585-.188,2.464-.176c.673-.049,1.346-.1,2.019-.146A.468.468,0,0,0-1347.08-3781.859Zm-9.53,26.927c.016.016.023.031.034.035.063.023.126.046.191.064a14.192,14.192,0,0,0,2.661.5,11.524,11.524,0,0,0,4.053-.334,8.784,8.784,0,0,0,3.352-1.693,5.518,5.518,0,0,0,1.665-2.182,3.146,3.146,0,0,0,.213-1.725,2.878,2.878,0,0,0-1.131-1.811,5.765,5.765,0,0,0-2.208-1.015,14.347,14.347,0,0,0-3.879-.349.354.354,0,0,0-.339.22q-2.25,4.052-4.51,8.1C-1356.543-3755.06-1356.576-3754.995-1356.61-3754.932Zm10.608-17.642c.074.028.129.054.185.071a9.61,9.61,0,0,0,4.4.385,7.355,7.355,0,0,0,3.316-1.363,5.224,5.224,0,0,0,1.7-2.053,3.13,3.13,0,0,0,.277-1.736,2.652,2.652,0,0,0-1.123-1.806,5.035,5.035,0,0,0-1.941-.826,11.1,11.1,0,0,0-2.737-.215.318.318,0,0,0-.323.2q-1.308,2.582-2.63,5.156Z" transform="translate(1413.122 3789.464)" fill="#e21836"/>
        <path id="Path_11" data-name="Path 11" d="M-790.315-3392.714l-27.985-1.035,2.867-5.851,24.363-.58Z" transform="translate(835.693 3408.702)" fill="#e21836"/>
      </g>
    </g>
  </g>
</svg>
