<svg xmlns="http://www.w3.org/2000/svg" width="178.527" height="22.645" viewBox="0 0 178.527 22.645">
  <g id="Group_16" data-name="Group 16" transform="translate(-158.434 -1135)">
    <g id="Group_15" data-name="Group 15" transform="translate(158.434 1135)">
      <path id="Path_12" data-name="Path 12" d="M2.961,0A2.935,2.935,0,0,0,6.147-3,2.942,2.942,0,0,0,2.961-6H.594V0Zm0-1.125H1.872V-4.878H2.961A1.757,1.757,0,0,1,4.842-3,1.8,1.8,0,0,1,2.961-1.125ZM9.045.108a2.206,2.206,0,0,0,2.3-2.286,2.2,2.2,0,0,0-2.3-2.277,2.2,2.2,0,0,0-2.3,2.277A2.2,2.2,0,0,0,9.045.108Zm0-1.017A1.144,1.144,0,0,1,7.938-2.178a1.141,1.141,0,0,1,1.107-1.26,1.147,1.147,0,0,1,1.116,1.26A1.15,1.15,0,0,1,9.045-.909ZM14.22.108a2,2,0,0,0,1.719-.792l-.747-.693a1.1,1.1,0,0,1-.918.468A1.169,1.169,0,0,1,13.1-2.178a1.162,1.162,0,0,1,1.179-1.26,1.054,1.054,0,0,1,.918.468l.747-.7a2.023,2.023,0,0,0-1.719-.783,2.2,2.2,0,0,0-2.3,2.277A2.207,2.207,0,0,0,14.22.108ZM20.763,0V-4.347H19.62V-1.4a1.28,1.28,0,0,1-.99.5.7.7,0,0,1-.8-.8V-4.347H16.686V-1.26A1.245,1.245,0,0,0,18.09.108a2.035,2.035,0,0,0,1.53-.657V0ZM28.44,0V-3.141a1.16,1.16,0,0,0-1.278-1.314,1.845,1.845,0,0,0-1.494.792,1.15,1.15,0,0,0-1.206-.792,1.9,1.9,0,0,0-1.422.675v-.567H21.9V0H23.04V-2.925a1.167,1.167,0,0,1,.9-.513c.468,0,.648.288.648.693V0H25.74V-2.934a1.154,1.154,0,0,1,.9-.5c.468,0,.648.288.648.693V0Zm3.168.108A2.71,2.71,0,0,0,33.4-.5l-.5-.738A1.852,1.852,0,0,1,31.734-.8a1.171,1.171,0,0,1-1.251-1.008h3.231v-.252a2.18,2.18,0,0,0-2.178-2.394,2.212,2.212,0,0,0-2.25,2.277A2.2,2.2,0,0,0,31.608.108Zm1-2.691H30.465a1.045,1.045,0,0,1,1.071-.963A1.007,1.007,0,0,1,32.607-2.583ZM38.619,0V-3.069a1.264,1.264,0,0,0-1.413-1.386,1.99,1.99,0,0,0-1.521.675v-.567H34.542V0h1.143V-2.925a1.238,1.238,0,0,1,.99-.513.705.705,0,0,1,.8.81V0Zm2.592.108a1.411,1.411,0,0,0,.954-.279l-.243-.864a.624.624,0,0,1-.4.126c-.252,0-.4-.207-.4-.477V-3.348h.882v-1H41.13V-5.535H39.978v1.188h-.72v1h.72V-1.08A1.086,1.086,0,0,0,41.211.108ZM51.642,0V-3.141a1.16,1.16,0,0,0-1.278-1.314,1.845,1.845,0,0,0-1.494.792,1.15,1.15,0,0,0-1.206-.792,1.9,1.9,0,0,0-1.422.675v-.567H45.1V0h1.143V-2.925a1.167,1.167,0,0,1,.9-.513c.468,0,.648.288.648.693V0h1.152V-2.934a1.154,1.154,0,0,1,.9-.5c.468,0,.648.288.648.693V0ZM56.52,0V-2.808c0-1.251-.909-1.647-1.9-1.647a2.852,2.852,0,0,0-1.9.684l.432.765a1.829,1.829,0,0,1,1.269-.513c.576,0,.954.288.954.729V-2.2A1.788,1.788,0,0,0,54-2.736a1.391,1.391,0,0,0-1.512,1.4A1.448,1.448,0,0,0,54,.108,1.8,1.8,0,0,0,55.377-.45V0ZM54.459-.666c-.45,0-.819-.234-.819-.639,0-.423.369-.657.819-.657a1.143,1.143,0,0,1,.918.378v.54A1.143,1.143,0,0,1,54.459-.666ZM61.731,0V-3.069a1.264,1.264,0,0,0-1.413-1.386A1.99,1.99,0,0,0,58.8-3.78v-.567H57.654V0H58.8V-2.925a1.238,1.238,0,0,1,.99-.513.705.705,0,0,1,.8.81V0Zm4.887,0V-2.808c0-1.251-.909-1.647-1.9-1.647a2.852,2.852,0,0,0-1.9.684l.432.765a1.829,1.829,0,0,1,1.269-.513c.576,0,.954.288.954.729V-2.2A1.788,1.788,0,0,0,64.1-2.736a1.391,1.391,0,0,0-1.512,1.4A1.448,1.448,0,0,0,64.1.108,1.8,1.8,0,0,0,65.475-.45V0ZM64.557-.666c-.45,0-.819-.234-.819-.639,0-.423.369-.657.819-.657a1.143,1.143,0,0,1,.918.378v.54A1.143,1.143,0,0,1,64.557-.666Zm4.977,2.43c1.071,0,2.349-.4,2.349-2.061v-4.05H70.731v.558a1.674,1.674,0,0,0-1.341-.666,1.945,1.945,0,0,0-1.917,2.214c0,1.449.828,2.214,1.917,2.214a1.693,1.693,0,0,0,1.341-.684V-.27a1.063,1.063,0,0,1-1.2,1.1,1.728,1.728,0,0,1-1.359-.54l-.513.828A2.634,2.634,0,0,0,69.534,1.764Zm.216-2.808a1.078,1.078,0,0,1-1.1-1.2,1.078,1.078,0,0,1,1.1-1.2,1.239,1.239,0,0,1,.981.5v1.4A1.266,1.266,0,0,1,69.75-1.044ZM75.06.108a2.71,2.71,0,0,0,1.791-.6l-.5-.738A1.852,1.852,0,0,1,75.186-.8a1.171,1.171,0,0,1-1.251-1.008h3.231v-.252a2.18,2.18,0,0,0-2.178-2.394,2.212,2.212,0,0,0-2.25,2.277A2.2,2.2,0,0,0,75.06.108Zm1-2.691H73.917a1.045,1.045,0,0,1,1.071-.963A1.007,1.007,0,0,1,76.059-2.583ZM84.537,0V-3.141a1.16,1.16,0,0,0-1.278-1.314,1.845,1.845,0,0,0-1.494.792,1.15,1.15,0,0,0-1.206-.792,1.9,1.9,0,0,0-1.422.675v-.567H77.994V0h1.143V-2.925a1.167,1.167,0,0,1,.9-.513c.468,0,.648.288.648.693V0h1.152V-2.934a1.154,1.154,0,0,1,.9-.5c.468,0,.648.288.648.693V0Zm3.168.108A2.71,2.71,0,0,0,89.5-.5l-.5-.738A1.852,1.852,0,0,1,87.831-.8,1.171,1.171,0,0,1,86.58-1.809h3.231v-.252a2.18,2.18,0,0,0-2.178-2.394,2.212,2.212,0,0,0-2.25,2.277A2.2,2.2,0,0,0,87.705.108Zm1-2.691H86.562a1.045,1.045,0,0,1,1.071-.963A1.007,1.007,0,0,1,88.7-2.583ZM94.716,0V-3.069A1.264,1.264,0,0,0,93.3-4.455a1.99,1.99,0,0,0-1.521.675v-.567H90.639V0h1.143V-2.925a1.238,1.238,0,0,1,.99-.513.705.705,0,0,1,.8.81V0Zm2.592.108a1.411,1.411,0,0,0,.954-.279l-.243-.864a.624.624,0,0,1-.4.126c-.252,0-.4-.207-.4-.477V-3.348h.882v-1h-.882V-5.535H96.075v1.188h-.72v1h.72V-1.08A1.086,1.086,0,0,0,97.308.108Zm5.454,0c1.206,0,1.881-.6,1.881-1.4,0-1.755-2.574-1.215-2.574-1.863,0-.243.27-.432.684-.432a1.834,1.834,0,0,1,1.287.5l.459-.783a2.777,2.777,0,0,0-1.755-.594c-1.143,0-1.782.639-1.782,1.368,0,1.71,2.583,1.125,2.583,1.845,0,.27-.234.468-.729.468a2.488,2.488,0,0,1-1.5-.594l-.495.8A2.926,2.926,0,0,0,102.762.108ZM105.336,1.7a3.124,3.124,0,0,0,.567.063A1.579,1.579,0,0,0,107.55.711l2.043-5.058H108.36l-1.134,3.024-1.134-3.024h-1.224l1.764,4.41-.162.369a.577.577,0,0,1-.6.315.988.988,0,0,1-.36-.072ZM111.672.108c1.206,0,1.881-.6,1.881-1.4,0-1.755-2.574-1.215-2.574-1.863,0-.243.27-.432.684-.432a1.834,1.834,0,0,1,1.287.5l.459-.783a2.777,2.777,0,0,0-1.755-.594c-1.143,0-1.782.639-1.782,1.368,0,1.71,2.583,1.125,2.583,1.845,0,.27-.234.468-.729.468a2.488,2.488,0,0,1-1.5-.594l-.495.8A2.926,2.926,0,0,0,111.672.108Zm4.185,0a1.411,1.411,0,0,0,.954-.279l-.243-.864a.624.624,0,0,1-.4.126c-.252,0-.4-.207-.4-.477V-3.348h.882v-1h-.882V-5.535h-1.152v1.188h-.72v1h.72V-1.08A1.086,1.086,0,0,0,115.857.108Zm3.627,0a2.71,2.71,0,0,0,1.791-.6l-.5-.738A1.852,1.852,0,0,1,119.61-.8a1.171,1.171,0,0,1-1.251-1.008h3.231v-.252a2.18,2.18,0,0,0-2.178-2.394,2.212,2.212,0,0,0-2.25,2.277A2.2,2.2,0,0,0,119.484.108Zm1-2.691h-2.142a1.045,1.045,0,0,1,1.071-.963A1.007,1.007,0,0,1,120.483-2.583ZM128.961,0V-3.141a1.16,1.16,0,0,0-1.278-1.314,1.845,1.845,0,0,0-1.494.792,1.15,1.15,0,0,0-1.206-.792,1.9,1.9,0,0,0-1.422.675v-.567h-1.143V0h1.143V-2.925a1.167,1.167,0,0,1,.9-.513c.468,0,.648.288.648.693V0h1.152V-2.934a1.154,1.154,0,0,1,.9-.5c.468,0,.648.288.648.693V0Z" transform="translate(49.566 20)" fill="#e21836"/>
      <g id="q8PeLx.tif">
        <g id="Group_3" data-name="Group 3">
          <path id="Path_8" data-name="Path 8" d="M-1677-1838.628a.686.686,0,0,1,.041-.09q.709-1.109,1.418-2.217a.147.147,0,0,1,.139-.077c.361-.005.722-.015,1.083-.022l3.432-.069,4.889-.1.769-.017h.11c-.021.042-.034.072-.05.1q-.634,1.164-1.267,2.329a.153.153,0,0,1-.157.091q-2.724.016-5.447.036l-3.554.026c-.043,0-.087.008-.13.011Z" transform="translate(1677 1861.273)" fill="#e21836"/>
          <path id="Path_9" data-name="Path 9" d="M-504.476-3821c.043.005.086.014.13.015l2.8.07,4.078.1,1.467.038.1.006.231,2.3-9.891-.147,1-2.387Z" transform="translate(517.419 3821)" fill="#e21836"/>
          <path id="Path_10" data-name="Path 10" d="M-1377.374-3785.335l-6.34-.7c.009-.088.962-2.4,1.123-2.731.049.006.1.016.154.018.172.008.344.021.516.02q1.534-.011,3.068-.028c.8-.009,1.6-.03,2.4-.033q3.347-.014,6.694-.017c.621,0,1.242.024,1.861.082a7.3,7.3,0,0,1,1.54.282,2.669,2.669,0,0,1,.962.5,1.537,1.537,0,0,1,.429.58,10.614,10.614,0,0,1,.558,1.646,5.753,5.753,0,0,1,.142,1.375,4.727,4.727,0,0,1-.994,2.793,8.078,8.078,0,0,1-1.486,1.513,14.466,14.466,0,0,1-2.272,1.476c-.4.211-.8.4-1.2.606l-.1.051c.042.031.076.058.11.083a6.448,6.448,0,0,1,1.215,1.11,4.088,4.088,0,0,1,.862,1.666,3.765,3.765,0,0,1,.042,1.527,5.475,5.475,0,0,1-.844,2.054,9.387,9.387,0,0,1-1.658,1.9,12.675,12.675,0,0,1-3.4,2.186,8.011,8.011,0,0,1-1.889.586,4.815,4.815,0,0,1-.724.073c-1.711.021-3.423.033-5.134.049l-6.988.061-4.466.038h-.108l-.975-3.3,8.684-.741v-.013c-.052-.005-.1-.013-.156-.015l-1.588-.069-2.458-.113-1.467-.065-2.144-.1c-.26-.012-.519-.025-.779-.03a.156.156,0,0,1-.163-.112q-.625-1.493-1.257-2.984c-.014-.033-.029-.066-.05-.112-.027.048-.047.083-.066.118q-.722,1.347-1.442,2.7a.164.164,0,0,1-.171.1q-5.109-.038-10.218-.071c-.033,0-.065,0-.11,0,.02-.036.031-.062.047-.087q.816-1.286,1.632-2.573a.138.138,0,0,1,.13-.071q1.058-.027,2.115-.059l3.877-.112,1.66-.046c.82-.022,1.64-.04,2.46-.07.266-.01.53-.051.8-.082.375-.043.75-.089,1.126-.133l1.276-.151,1.116-.133,1.307-.155,1.276-.15,1.286-.153,1.106-.13,1.3-.154,1.106-.13c.288-.034.576-.069.864-.115-.019,0-.038-.006-.057-.007l-2.024-.058-3.523-.1-1.609-.044-3.523-.1-1.6-.044-3.533-.1-1.6-.044-3.533-.1c-.121,0-.243,0-.387,0,.026-.05.041-.081.058-.111l1.246-2.121c.123-.209.249-.417.368-.629a.14.14,0,0,1,.135-.08q1.417-.041,2.834-.087l3.806-.123,2.469-.08,3.806-.123,2.48-.08,3.168-.1,2.48-.08.667-.024a.037.037,0,0,0,0-.011.016.016,0,0,0-.008-.006.215.215,0,0,0-.038-.012l-5.357-.882c.019-.038.034-.069.051-.1l1.905-3.284c.054-.094.11-.186.161-.281a.121.121,0,0,1,.11-.073c.306-.02.613-.042.919-.064l1.292-.094.949-.068,1.292-.094,1.232-.088c.337-.024.673-.051,1.01-.073A.234.234,0,0,0-1377.374-3785.335Zm-4.765,13.463c.008.008.011.015.017.017.032.012.063.023.1.032a7.1,7.1,0,0,0,1.33.25,5.762,5.762,0,0,0,2.026-.167,4.392,4.392,0,0,0,1.676-.847,2.759,2.759,0,0,0,.833-1.091,1.573,1.573,0,0,0,.106-.863,1.439,1.439,0,0,0-.565-.906,2.883,2.883,0,0,0-1.1-.507,7.174,7.174,0,0,0-1.939-.175.177.177,0,0,0-.169.11q-1.125,2.026-2.255,4.05C-1382.1-3771.936-1382.122-3771.9-1382.138-3771.872Zm5.3-8.821c.037.014.064.027.093.035a4.805,4.805,0,0,0,2.2.192,3.677,3.677,0,0,0,1.658-.682,2.612,2.612,0,0,0,.848-1.026,1.565,1.565,0,0,0,.139-.868,1.326,1.326,0,0,0-.561-.9,2.517,2.517,0,0,0-.97-.413,5.548,5.548,0,0,0-1.369-.107.159.159,0,0,0-.162.1q-.654,1.291-1.315,2.578Z" transform="translate(1410.395 3789.138)" fill="#e21836"/>
          <path id="Path_11" data-name="Path 11" d="M-804.307-3396.446l-13.992-.517,1.434-2.925,12.181-.29Z" transform="translate(826.996 3404.44)" fill="#e21836"/>
        </g>
      </g>
    </g>
  </g>
</svg>
