<svg id="Icon-Update" xmlns="http://www.w3.org/2000/svg" width="48" height="48" viewBox="0 0 48 48">
  <g id="Component_14" data-name="Component 14">
    <rect id="Rectangle_118" data-name="Rectangle 118" width="48" height="48" fill="none"/>
  </g>
  <g id="Group_29" data-name="Group 29" transform="translate(-138.446 -642)">
    <path id="Exclusion_12" data-name="Exclusion 12" d="M-2856,32a15.892,15.892,0,0,1-11.314-4.686c-.362-.362-.708-.742-1.031-1.131l-.107,3.074a1.494,1.494,0,0,1-1.5,1.448H-2870a1.5,1.5,0,0,1-1.045-.477,1.493,1.493,0,0,1-.4-1.075l.244-7a1.474,1.474,0,0,1,.174-.649c-.128-.348-.244-.7-.345-1.055l.346,1.051a1.516,1.516,0,0,1,.32-.409,1.5,1.5,0,0,1,1.042-.421h.052l1.492.052-.112-.312c.039.1.079.208.12.312l5.5.193a1.5,1.5,0,0,1,1.447,1.552,1.5,1.5,0,0,1-1.5,1.448h-.053l-3.684-.129a13.1,13.1,0,0,0,1.218,1.4A12.922,12.922,0,0,0-2856,29a12.913,12.913,0,0,0,9.192-3.807A12.914,12.914,0,0,0-2843,16c0-.154,0-.288-.006-.409l.035.562,2.929,1.036a15.856,15.856,0,0,1-1.4,5.47,15.986,15.986,0,0,1-3.245,4.655A15.9,15.9,0,0,1-2856,32Zm-15.391-11.6h0l-.105-.317-.075-.382c.061.253.119.481.182.7Zm-.193-.751h0A16.158,16.158,0,0,1-2872,16a15.887,15.887,0,0,1,4.687-11.314A15.892,15.892,0,0,1-2856,0a15.851,15.851,0,0,1,5.521.983,15.82,15.82,0,0,1,4.7,2.74,16.123,16.123,0,0,1,3.528,4.184,16.636,16.636,0,0,1,1.994,5.314l-2.94.393.056.485a12.867,12.867,0,0,0-3.67-7.291A12.913,12.913,0,0,0-2856,3a12.923,12.923,0,0,0-9.194,3.808A12.915,12.915,0,0,0-2869,16a13.131,13.131,0,0,0,.335,2.955l-.05-.188-3.083-.212.215,1.1ZM-2840,16.423h0V15.51c0,.137.007.317.007.491,0,.132,0,.274-.005.422Zm-3.005-.9h0l-.042-.689c.023.243.037.475.044.688Zm3-.076h0c-.014-.406-.043-.83-.082-1.194l.084.653v.541Zm-3.048-.633h0l-.082-.714c.033.22.061.453.085.713Z" transform="translate(3016.447 650)" fill="#707070"/>
    <path id="Union_25" data-name="Union 25" d="M-2865.99,13.132l-4.95-4.95a1.5,1.5,0,0,1-.438-1.086,1.5,1.5,0,0,1,.438-1.086l4.95-4.95a1.5,1.5,0,0,1,2.121,0,1.5,1.5,0,0,1,0,2.122l-3.915,3.914,3.915,3.914a1.5,1.5,0,0,1,0,2.121,1.5,1.5,0,0,1-1.061.439A1.5,1.5,0,0,1-2865.99,13.132Z" transform="translate(-1266.401 -1818.696) rotate(-120)" fill="#707070"/>
  </g>
</svg>
