<svg id="Icon-pause" xmlns="http://www.w3.org/2000/svg" width="48" height="48" viewBox="0 0 48 48">
  <g id="Component_19" data-name="Component 19">
    <rect id="Rectangle_118" data-name="Rectangle 118" width="48" height="48" fill="none"/>
  </g>
  <g id="Group_38" data-name="Group 38" transform="translate(-178 -573)">
    <path id="Subtraction_2" data-name="Subtraction 2" d="M-2867.925,30h-1.9a12.366,12.366,0,0,1,4.218-7.193,15.682,15.682,0,0,1,7.083-3.449,10,10,0,0,1-4.655-3.612A9.925,9.925,0,0,1-2865,10a10.011,10.011,0,0,1,10-10,10.011,10.011,0,0,1,10,10,9.926,9.926,0,0,1-1.82,5.747,10,10,0,0,1-4.655,3.612,15.664,15.664,0,0,1,7.081,3.448A12.367,12.367,0,0,1-2840.176,30h-1.9a10.876,10.876,0,0,0-3.643-6.043A14.119,14.119,0,0,0-2855,20.625a14.119,14.119,0,0,0-9.281,3.332A10.877,10.877,0,0,0-2867.924,30ZM-2855,2.25a7.759,7.759,0,0,0-7.75,7.75,7.759,7.759,0,0,0,7.75,7.75,7.759,7.759,0,0,0,7.75-7.75A7.759,7.759,0,0,0-2855,2.25Z" transform="translate(3054.825 580)" fill="#707070"/>
    <g id="Group_34" data-name="Group 34" transform="translate(-20 17)">
      <path id="Exclusion_13" data-name="Exclusion 13" d="M7,0A7,7,0,1,1,0,7,7,7,0,0,1,7,0Z" transform="translate(225 583)" fill="#707070"/>
      <g id="Group_32" data-name="Group 32" transform="translate(229.375 586.5)">
        <g id="Rectangle_280" data-name="Rectangle 280" transform="translate(1.625 0.5) rotate(90)" fill="#fff" stroke="#fff" stroke-width="1">
          <rect width="7" height="2" rx="1" stroke="none"/>
          <rect x="0.5" y="0.5" width="6" height="1" rx="0.5" fill="none"/>
        </g>
        <g id="Rectangle_281" data-name="Rectangle 281" transform="translate(5.625 0.5) rotate(90)" fill="#fff" stroke="#fff" stroke-width="1">
          <rect width="7" height="2" rx="1" stroke="none"/>
          <rect x="0.5" y="0.5" width="6" height="1" rx="0.5" fill="none"/>
        </g>
      </g>
    </g>
  </g>
</svg>
