<svg id="Icon-del" xmlns="http://www.w3.org/2000/svg" width="48" height="48" viewBox="0 0 48 48">
  <g id="Component_5" data-name="Component 5">
    <rect id="Rectangle_118" data-name="Rectangle 118" width="48" height="48" fill="none"/>
  </g>
  <g id="Union_17" data-name="Union 17" transform="translate(2882.378 10.378)" fill="#6e6e6e">
    <path d="M -2847.251220703125 25.74873161315918 C -2847.518310546875 25.74873161315918 -2847.76953125 25.64468002319336 -2847.95849609375 25.45573997497559 L -2858.21142578125 15.2027006149292 L -2858.56494140625 14.84915065765381 L -2858.91845703125 15.20269107818604 L -2869.171875 25.45573997497559 C -2869.360595703125 25.64475059509277 -2869.611572265625 25.74873161315918 -2869.878662109375 25.74873161315918 C -2870.145751953125 25.74873161315918 -2870.396728515625 25.64475059509277 -2870.585205078125 25.4559497833252 C -2870.97509765625 25.06587982177734 -2870.97509765625 24.43142127990723 -2870.58544921875 24.04149055480957 L -2860.33251953125 13.78876113891602 L -2859.97900390625 13.43520069122314 L -2860.33251953125 13.08164024353027 L -2870.58544921875 2.828840732574463 C -2870.774169921875 2.639970779418945 -2870.878173828125 2.388710737228394 -2870.878173828125 2.121410608291626 C -2870.878173828125 1.854260683059692 -2870.7744140625 1.603330731391907 -2870.585693359375 1.414860725402832 C -2870.396728515625 1.225650668144226 -2870.145751953125 1.121680736541748 -2869.878662109375 1.121680736541748 C -2869.611572265625 1.121680736541748 -2869.360595703125 1.225650668144226 -2869.172119140625 1.414450645446777 L -2858.91845703125 11.66771030426025 L -2858.56494140625 12.02125072479248 L -2858.21142578125 11.66770076751709 L -2847.95849609375 1.414650678634644 C -2847.76953125 1.225730657577515 -2847.518310546875 1.121680736541748 -2847.251220703125 1.121680736541748 C -2846.984375 1.121680736541748 -2846.733154296875 1.225730657577515 -2846.544189453125 1.414660692214966 C -2846.355224609375 1.603400707244873 -2846.251220703125 1.854300737380981 -2846.251220703125 2.121410608291626 C -2846.251220703125 2.388670682907104 -2846.355224609375 2.639910697937012 -2846.544189453125 2.828830718994141 L -2856.79736328125 13.08164024353027 L -2857.15087890625 13.43520069122314 L -2856.79736328125 13.78876113891602 L -2846.544189453125 24.04156112670898 C -2846.355224609375 24.23049163818359 -2846.251220703125 24.48161125183105 -2846.251220703125 24.7486515045166 C -2846.251220703125 25.01568984985352 -2846.355224609375 25.26681137084961 -2846.544189453125 25.45573043823242 C -2846.733154296875 25.64468002319336 -2846.984130859375 25.74873161315918 -2847.251220703125 25.74873161315918 Z" stroke="none"/>
    <path d="M -2847.251220703125 25.24873161315918 C -2847.173828125 25.24873161315918 -2847.025390625 25.22969055175781 -2846.897705078125 25.10217094421387 C -2846.770263671875 24.97467994689941 -2846.751220703125 24.82595062255859 -2846.751220703125 24.7486515045166 C -2846.751220703125 24.67135047912598 -2846.770263671875 24.52262115478516 -2846.897705078125 24.39512062072754 L -2857.15087890625 14.14232063293457 L -2857.858154296875 13.43520069122314 L -2857.15087890625 12.72808074951172 L -2846.897705078125 2.475270748138428 C -2846.770263671875 2.347780704498291 -2846.751220703125 2.198840618133545 -2846.751220703125 2.121410608291626 C -2846.751220703125 2.044150590896606 -2846.770263671875 1.89560067653656 -2846.897705078125 1.768220663070679 C -2847.025390625 1.640720725059509 -2847.174072265625 1.621680736541748 -2847.251220703125 1.621680736541748 C -2847.32861328125 1.621680736541748 -2847.477294921875 1.640720725059509 -2847.60498046875 1.768200635910034 L -2857.85791015625 12.02125072479248 L -2858.56494140625 12.72835063934326 L -2859.27197265625 12.02127075195312 L -2869.52587890625 1.767780661582947 C -2869.65283203125 1.640660643577576 -2869.801513671875 1.621680736541748 -2869.878662109375 1.621680736541748 C -2869.955810546875 1.621680736541748 -2870.1044921875 1.640660643577576 -2870.232177734375 1.768620729446411 C -2870.359375 1.89547073841095 -2870.378173828125 2.044100761413574 -2870.378173828125 2.121410608291626 C -2870.378173828125 2.198890686035156 -2870.359130859375 2.347910642623901 -2870.23193359375 2.475290775299072 L -2859.97900390625 12.72809028625488 L -2859.271728515625 13.43520069122314 L -2859.97900390625 14.14231109619141 L -2870.231689453125 24.39498138427734 C -2870.4267578125 24.58999061584473 -2870.4267578125 24.90731048583984 -2870.2314453125 25.10260009765625 C -2870.1044921875 25.22975158691406 -2869.955810546875 25.24873161315918 -2869.878662109375 25.24873161315918 C -2869.801513671875 25.24873161315918 -2869.65283203125 25.22975158691406 -2869.525390625 25.10218048095703 L -2859.27197265625 14.84913063049316 L -2858.56494140625 14.14205074310303 L -2857.85791015625 14.84915065765381 L -2847.60498046875 25.10218048095703 C -2847.477294921875 25.22969055175781 -2847.32861328125 25.24873161315918 -2847.251220703125 25.24873161315918 M -2847.251220703125 26.24873161315918 C -2847.63525390625 26.24873161315918 -2848.01904296875 26.10225105285645 -2848.31201171875 25.80930137634277 L -2858.56494140625 15.55625057220459 L -2868.818359375 25.80930137634277 C -2869.111083984375 26.10225105285645 -2869.494873046875 26.24872589111328 -2869.878662109375 26.24872589111328 C -2870.262451171875 26.24872589111328 -2870.646240234375 26.10225105285645 -2870.93896484375 25.80930137634277 C -2871.524658203125 25.2234001159668 -2871.524658203125 24.27390098571777 -2870.93896484375 23.68800163269043 L -2860.68603515625 13.43520069122314 L -2870.93896484375 3.182400703430176 C -2871.524658203125 2.596500635147095 -2871.524658203125 1.646100640296936 -2870.93896484375 1.061100721359253 C -2870.646240234375 0.7681506872177124 -2870.262451171875 0.6216756701469421 -2869.878662109375 0.6216756701469421 C -2869.494873046875 0.6216756701469421 -2869.111083984375 0.7681506872177124 -2868.818359375 1.061100721359253 L -2858.56494140625 11.3141508102417 L -2848.31201171875 1.061100721359253 C -2848.01904296875 0.7681506872177124 -2847.63525390625 0.6216756701469421 -2847.251220703125 0.6216756701469421 C -2846.867431640625 0.6216756701469421 -2846.483642578125 0.7681506872177124 -2846.190673828125 1.061100721359253 C -2845.604736328125 1.646100640296936 -2845.604736328125 2.596500635147095 -2846.190673828125 3.182400703430176 L -2856.44384765625 13.43520069122314 L -2846.190673828125 23.68800163269043 C -2845.604736328125 24.27390098571777 -2845.604736328125 25.2234001159668 -2846.190673828125 25.80930137634277 C -2846.483642578125 26.10225105285645 -2846.867431640625 26.24873161315918 -2847.251220703125 26.24873161315918 Z" stroke="none" fill="#707070"/>
  </g>
</svg>
