<svg id="Icon-file" xmlns="http://www.w3.org/2000/svg" width="48" height="48" viewBox="0 0 48 48">
  <g id="Union_18" data-name="Union 18" transform="translate(2877 8)" fill="#6e6e6e">
    <path d="M -2836 30.50050163269043 L -2870.000244140625 30.50050163269043 C -2870.8271484375 30.50050163269043 -2871.5 29.82729148864746 -2871.5 28.99980163574219 L -2871.5 9.000000953674316 L -2871.5 0.9999008178710938 C -2871.5 0.7242507934570312 -2871.275634765625 0.5000008344650269 -2871 0.5000008344650269 L -2856.999755859375 0.5000008344650269 C -2856.72412109375 0.5000008344650269 -2856.499755859375 0.7242507934570312 -2856.499755859375 0.9999008178710938 L -2856.499755859375 1.035430788993835 L -2856.49462890625 1.070610761642456 L -2855.637451171875 7.070910930633545 L -2855.576171875 7.500200748443604 L -2855.142578125 7.500200748443604 L -2836 7.500200748443604 C -2835.173095703125 7.500200748443604 -2834.500244140625 8.17301082611084 -2834.500244140625 9.000000953674316 L -2834.500244140625 28.99980163574219 C -2834.500244140625 29.82729148864746 -2835.173095703125 30.50050163269043 -2836 30.50050163269043 Z M -2855.999755859375 8.500000953674316 C -2863.6513671875 8.500000953674316 -2867.61328125 8.632640838623047 -2869.741455078125 8.703890800476074 L -2869.76220703125 8.704581260681152 L -2869.78125 8.705230712890625 L -2870.01708984375 8.713211059570312 L -2870.500244140625 8.729451179504395 L -2870.500244140625 9.212930679321289 L -2870.500244140625 27 C -2870.500244140625 28.37839126586914 -2869.37890625 29.49980163574219 -2868.00048828125 29.49980163574219 L -2837.999755859375 29.49980163574219 C -2836.621337890625 29.49980163574219 -2835.5 28.37839126586914 -2835.5 27 L -2835.5 10.99980068206787 C -2835.5 9.621410369873047 -2836.621337890625 8.500000953674316 -2837.999755859375 8.500000953674316 L -2855.999755859375 8.500000953674316 Z M -2869.15771484375 1.249600768089294 C -2869.98486328125 1.249600768089294 -2870.65771484375 1.922860860824585 -2870.65771484375 2.75040078163147 L -2870.65771484375 7.00636100769043 L -2870.65771484375 7.54702091217041 L -2870.11865234375 7.504840850830078 C -2870.079345703125 7.501760959625244 -2870.03955078125 7.500200748443604 -2870.000244140625 7.500200748443604 L -2856.786376953125 7.500200748443604 L -2856.352783203125 7.500200748443604 L -2856.29150390625 7.070860862731934 C -2856.253662109375 6.806400775909424 -2856.315185546875 6.494760990142822 -2856.4267578125 5.92901086807251 L -2856.42822265625 5.921560764312744 C -2856.559326171875 5.258800506591797 -2856.7568359375 4.259118556976318 -2856.90771484375 2.723529815673828 C -2856.922119140625 1.908356904983521 -2857.58935546875 1.249600768089294 -2858.4072265625 1.249600768089294 L -2869.15771484375 1.249600768089294 Z" stroke="none"/>
    <path d="M -2836 30.00050163269043 C -2835.44873046875 30.00050163269043 -2835.000244140625 29.55158996582031 -2835.000244140625 28.99980163574219 L -2835.000244140625 27.0382137298584 C -2835.020751953125 28.67482376098633 -2836.3583984375 29.99980163574219 -2837.999755859375 29.99980163574219 L -2868.00048828125 29.99980163574219 C -2869.641845703125 29.99980163574219 -2870.9794921875 28.67482376098633 -2871 27.0382137298584 L -2871 28.99980163574219 C -2871 29.55158996582031 -2870.551513671875 30.00050163269043 -2870.000244140625 30.00050163269043 L -2836 30.00050163269043 M -2835.000244140625 10.96158885955811 L -2835.000244140625 9.000000953674316 C -2835.000244140625 8.448710441589355 -2835.44873046875 8.000201225280762 -2836 8.000201225280762 L -2837.96484375 8.000201225280762 C -2836.339599609375 8.018763542175293 -2835.0205078125 9.336553573608398 -2835.000244140625 10.96158885955811 M -2871 8.245963096618652 L -2870.033935546875 8.21349048614502 L -2869.79833984375 8.205520629882812 L -2869.77880859375 8.204860687255859 L -2869.75830078125 8.204171180725098 C -2867.675048828125 8.134428024291992 -2863.837646484375 8.005952835083008 -2856.51171875 8.000201225280762 L -2856.786376953125 8.000201225280762 L -2870.000244140625 8.000201225280762 C -2870.026611328125 8.000201225280762 -2870.05322265625 8.001251220703125 -2870.07958984375 8.003311157226562 L -2871 8.075346946716309 L -2871 8.245963096618652 M -2871 1.971660256385803 C -2870.824951171875 1.558650374412537 -2870.514892578125 1.216180801391602 -2870.125732421875 0.9999070763587952 L -2871 0.9999008178710938 L -2871 1.971660256385803 M -2856.956298828125 1.374812841415405 L -2856.98974609375 1.141320824623108 L -2856.999755859375 1.071070790290833 L -2856.999755859375 1.000000834465027 L -2857.439208984375 0.9999976754188538 C -2857.259521484375 1.0998774766922 -2857.0966796875 1.226607799530029 -2856.956298828125 1.374812841415405 M -2836 31.00050163269043 L -2870.000244140625 31.00050163269043 C -2871.102783203125 31.00050163269043 -2872 30.10320091247559 -2872 28.99980163574219 L -2872 9.000000953674316 L -2872 0.9999008178710938 C -2872 0.4482008218765259 -2871.5517578125 8.163452207554656e-07 -2871 8.163452207554656e-07 L -2856.999755859375 8.163452207554656e-07 C -2856.447998046875 8.163452207554656e-07 -2855.999755859375 0.4482008218765259 -2855.999755859375 0.9999008178710938 L -2855.142578125 7.000200748443604 L -2836 7.000200748443604 C -2834.8974609375 7.000200748443604 -2834.000244140625 7.897500991821289 -2834.000244140625 9.000000953674316 L -2834.000244140625 28.99980163574219 C -2834.000244140625 30.10320091247559 -2834.8974609375 31.00050163269043 -2836 31.00050163269043 Z M -2855.999755859375 9.000000953674316 C -2863.667724609375 9.000000953674316 -2867.62158203125 9.133200645446777 -2869.745361328125 9.204300880432129 C -2869.833984375 9.207310676574707 -2869.918701171875 9.210190773010254 -2870.000244140625 9.212930679321289 L -2870.000244140625 27 C -2870.000244140625 28.10250091552734 -2869.102783203125 28.99980163574219 -2868.00048828125 28.99980163574219 L -2837.999755859375 28.99980163574219 C -2836.897216796875 28.99980163574219 -2836 28.10250091552734 -2836 27 L -2836 10.99980068206787 C -2836 9.897300720214844 -2836.897216796875 9.000000953674316 -2837.999755859375 9.000000953674316 L -2855.999755859375 9.000000953674316 Z M -2869.15771484375 1.749600768089294 C -2869.70849609375 1.749600768089294 -2870.15771484375 2.198700904846191 -2870.15771484375 2.75040078163147 L -2870.15771484375 7.00636100769043 C -2870.105712890625 7.002290725708008 -2870.05322265625 7.000200748443604 -2870.000244140625 7.000200748443604 L -2856.786376953125 7.000200748443604 C -2856.760498046875 6.818920612335205 -2856.81982421875 6.519690990447998 -2856.918701171875 6.018301010131836 C -2857.052734375 5.340600967407227 -2857.25439453125 4.319100856781006 -2857.407470703125 2.75040078163147 C -2857.407470703125 2.198700904846191 -2857.85546875 1.749600768089294 -2858.4072265625 1.749600768089294 L -2869.15771484375 1.749600768089294 Z" stroke="none" fill="#707070"/>
  </g>
  <g id="Component_7" data-name="Component 7">
    <rect id="Rectangle_118" data-name="Rectangle 118" width="48" height="48" fill="none"/>
  </g>
</svg>
